<svg width="22" height="16" viewBox="0 0 22 16" fill="none" xmlns="http://www.w3.org/2000/svg">
<path d="M11 4.81721C10.1575 4.82278 9.3512 5.15989 8.75551 5.75558C8.15982 6.35127 7.8227 7.1576 7.81714 8.00001C7.81714 9.74206 9.25789 11.1828 11 11.1828C12.7409 11.1828 14.1828 9.74206 14.1828 8.00001C14.1828 6.25902 12.7409 4.81721 11 4.81721Z" fill="#767676"/>
<path d="M11 0.573318C2.90183 0.573318 0.468037 7.59351 0.445757 7.66459L0.333298 7.99984L0.444696 8.3351C0.468037 8.40618 2.90183 15.4264 11 15.4264C19.0981 15.4264 21.5319 8.40618 21.5542 8.3351L21.6666 7.99984L21.5552 7.66459C21.5319 7.59351 19.0981 0.573318 11 0.573318ZM11 13.3045C5.32289 13.3045 3.12356 9.22416 2.59097 7.99984C3.12568 6.77128 5.32607 2.69518 11 2.69518C16.677 2.69518 18.8764 6.77553 19.409 7.99984C18.8742 9.2284 16.6739 13.3045 11 13.3045Z" fill="#8a8a8a"/>
</svg>